<?xml version="1.0" encoding="iso-8859-1"?>
<!-- Generator: Adobe Illustrator 19.0.0, SVG Export Plug-In . SVG Version: 6.00 Build 0)  -->
<svg version="1.1" id="Layer_1" xmlns="http://www.w3.org/2000/svg" xmlns:xlink="http://www.w3.org/1999/xlink" x="0px" y="0px"
	 viewBox="0 0 512 512" style="enable-background:new 0 0 512 512;" xml:space="preserve">
<g>
	<g>
		<path d="M334.367,323.918c-17.313,0-31.347,14.034-31.347,31.347c0,11.6,6.307,21.722,15.674,27.143v46h31.347v-46
			c9.366-5.421,15.673-15.542,15.673-27.143C365.714,337.952,351.68,323.918,334.367,323.918z"/>
	</g>
</g>
<g>
	<g>
		<path d="M287.347,229.878v-88.816C287.347,63.28,224.067,0,146.286,0S5.224,63.28,5.224,141.061v120.163h94.041V141.061
			c0-25.927,21.093-47.02,47.02-47.02s47.02,21.093,47.02,47.02v88.816h-31.347V512h344.816V229.878H287.347z M146.286,62.694
			c-43.212,0-78.367,35.156-78.367,78.367v88.816H36.571v-88.816c0-60.496,49.218-109.714,109.714-109.714S256,80.565,256,141.061
			v88.816h-31.347v-88.816C224.653,97.849,189.497,62.694,146.286,62.694z M475.429,480.653H193.306V261.224h282.122V480.653z"/>
	</g>
</g>
<g>
</g>
<g>
</g>
<g>
</g>
<g>
</g>
<g>
</g>
<g>
</g>
<g>
</g>
<g>
</g>
<g>
</g>
<g>
</g>
<g>
</g>
<g>
</g>
<g>
</g>
<g>
</g>
<g>
</g>
</svg>
